<svg xmlns="http://www.w3.org/2000/svg" viewBox="0 0 400 400">
  <!-- Background circle -->
  <circle cx="200" cy="200" r="180" fill="white" stroke="#333" stroke-width="3"/>
  
  <!-- Molecule structure background -->
  <g opacity="0.15">
    <circle cx="140" cy="160" r="12" fill="#3498db"/>
    <circle cx="200" cy="120" r="12" fill="#e74c3c"/>
    <circle cx="260" cy="160" r="12" fill="#2ecc71"/>
    <circle cx="140" cy="240" r="12" fill="#9b59b6"/>
    <circle cx="200" cy="280" r="12" fill="#f39c12"/>
    <circle cx="260" cy="240" r="12" fill="#1abc9c"/>
    
    <line x1="140" y1="160" x2="200" y2="120" stroke="#333" stroke-width="3"/>
    <line x1="200" y1="120" x2="260" y2="160" stroke="#333" stroke-width="3"/>
    <line x1="140" y1="160" x2="140" y2="240" stroke="#333" stroke-width="3"/>
    <line x1="260" y1="160" x2="260" y2="240" stroke="#333" stroke-width="3"/>
    <line x1="140" y1="240" x2="200" y2="280" stroke="#333" stroke-width="3"/>
    <line x1="200" y1="280" x2="260" y2="240" stroke="#333" stroke-width="3"/>
  </g>
  
  <!-- Panda face -->
  <!-- Main head -->
  <circle cx="200" cy="200" r="100" fill="white" stroke="#333" stroke-width="4"/>
  
  <!-- Ears -->
  <circle cx="130" cy="130" r="30" fill="#333"/>
  <circle cx="270" cy="130" r="30" fill="#333"/>
  
  <!-- Eyes -->
  <g>
    <!-- Eye patches -->
    <ellipse cx="160" cy="180" rx="30" ry="35" fill="#333"/>
    <ellipse cx="240" cy="180" rx="30" ry="35" fill="#333"/>
    
    <!-- Eyeballs -->
    <circle cx="160" cy="185" r="12" fill="white"/>
    <circle cx="240" cy="185" r="12" fill="white"/>
    
    <!-- Pupils -->
    <circle cx="160" cy="185" r="6" fill="#333"/>
    <circle cx="240" cy="185" r="6" fill="#333"/>
  </g>
  
  <!-- Nose -->
  <ellipse cx="200" cy="210" rx="15" ry="10" fill="#333"/>
  
  <!-- Mouth -->
  <path d="M170,230 Q200,245 230,230" fill="none" stroke="#333" stroke-width="3" stroke-linecap="round"/>
  
  <!-- Map/Interaction elements -->
  <!-- Interaction lines connecting to molecule structure -->
  <g opacity="0.8">
    <line x1="160" y1="185" x2="140" y2="160" stroke="#3498db" stroke-width="2" stroke-dasharray="5,3"/>
    <line x1="240" y1="185" x2="260" y2="160" stroke="#2ecc71" stroke-width="2" stroke-dasharray="5,3"/>
    <line x1="200" y1="210" x2="200" y2="120" stroke="#e74c3c" stroke-width="2" stroke-dasharray="5,3"/>
  </g>
  
  <!-- Text -->
  <text x="200" y="350" font-family="Arial, sans-serif" font-size="40" font-weight="bold" text-anchor="middle" fill="#333">PandaMap</text>
  
  <!-- Molecular dots highlighting the connections -->
  <circle cx="140" cy="160" r="5" fill="#3498db"/>
  <circle cx="200" cy="120" r="5" fill="#e74c3c"/>
  <circle cx="260" cy="160" r="5" fill="#2ecc71"/>
</svg>